<svg width="2186" height="1257" viewBox="0 0 2186 1257" fill="none" xmlns="http://www.w3.org/2000/svg">
<path d="M1239.31 167.942H60V434.939L112.092 510.163V675.005L60 734.905V1209H732.895L788.209 1115.67H2134V734.905L2074.93 675.005V510.163L2134 434.939V63H1332.76L1239.31 167.942Z" fill="url(#paint0_radial_829:84)" stroke="url(#paint1_linear_829:84)" stroke-width="9"/>
<g filter="url(#filter0_f_829:84)">
<path d="M1235.31 160.85H56V427.615L108.092 502.773V667.471L56 727.319V1201H728.895L784.209 1107.75H2130V727.319L2070.93 667.471V502.773L2130 427.615V56H1328.76L1235.31 160.85Z" stroke="#02CBEF" stroke-width="6"/>
</g>
<path d="M825.023 169.85H56V436.615L108.092 511.773V676.471L56 736.319V1210H728.895L784.209 1116.75H1307.27M804.616 169.85H1235.31L1328.76 65H2130V436.615L2070.93 511.773V676.471L2130 736.319V1116.75H1772.34" stroke="#02CBEF" stroke-opacity="0.86" stroke-width="7"/>
<path d="M1337 1151L1359 1078" stroke="#02CBEF" stroke-width="25"/>
<path d="M1383 1151L1405 1078" stroke="#02CBEF" stroke-width="25"/>
<path d="M1427 1150L1449 1077" stroke="#02CBEF" stroke-width="25"/>
<path d="M1473 1151L1495 1078" stroke="#02CBEF" stroke-width="25"/>
<path d="M1519 1151L1542 1078" stroke="#02CBEF" stroke-width="25"/>
<path d="M1565 1151L1588 1078" stroke="#02CBEF" stroke-width="25"/>
<path d="M1611 1151L1633 1078" stroke="#02CBEF" stroke-width="25"/>
<path d="M1657 1151L1679 1078" stroke="#02CBEF" stroke-width="25"/>
<path d="M1701 1151L1723 1078" stroke="#02CBEF" stroke-width="25"/>
<path d="M1747 1151L1769 1078" stroke="#02CBEF" stroke-width="25"/>
<path d="M2040 658.827L2094.77 713.371L2126.89 747L2129 713.371L2066.86 658.827V510.369L2128.47 444.342L2127.42 415.635V410.713L2125.84 398L2097.42 436.55L2040 504.628V658.827Z" fill="#02CBEF"/>
<path d="M2098.46 435.32L2097.42 436.55M2097.42 436.55L2040 504.627V658.827L2094.77 713.371L2126.89 747L2129 713.371L2066.86 658.827V510.369L2128.47 444.342L2127.42 415.635V410.713L2125.84 398L2097.42 436.55Z" stroke="#02CBEF" stroke-width="12"/>
<path d="M151 659.017L95 712.825L62.1538 746L60 712.825L112.769 659.017L107.385 515.394L60.5385 447.426L61.6154 419.106V414.251L60.5385 392L62.6923 394.427L92.2918 439.739L151 506.898V659.017Z" fill="#02CBEF"/>
<path d="M91.2308 438.526L92.2918 439.739M92.2918 439.739L151 506.898V659.017L95 712.825L62.1538 746L60 712.825L112.769 659.017L107.385 515.394L60.5385 447.426L61.6154 419.106V414.251L60.5385 392L62.6923 394.427L92.2918 439.739Z" stroke="#02CBEF" stroke-width="12"/>
<path d="M787.5 1112.5L726.5 1211.5H428.5V1112.5H787.5Z" fill="#02B5DA" stroke="#02B5DA" stroke-width="1.6"/>
<path d="M421 1112V1215H58V1112H421Z" fill="#02B5DA"/>
<defs>
<filter id="filter0_f_829:84" x="0" y="0" width="2186" height="1257" filterUnits="userSpaceOnUse" color-interpolation-filters="sRGB">
<feFlood flood-opacity="0" result="BackgroundImageFix"/>
<feBlend mode="normal" in="SourceGraphic" in2="BackgroundImageFix" result="shape"/>
<feGaussianBlur stdDeviation="26.5" result="effect1_foregroundBlur_829:84"/>
</filter>
<radialGradient id="paint0_radial_829:84" cx="0" cy="0" r="1" gradientUnits="userSpaceOnUse" gradientTransform="translate(1097.54 636) rotate(90.0537) scale(573 1037)">
<stop stop-color="#016599"/>
<stop offset="1" stop-color="#000F30"/>
</radialGradient>
<linearGradient id="paint1_linear_829:84" x1="1097" y1="63" x2="975.866" y2="555.226" gradientUnits="userSpaceOnUse">
<stop stop-color="white"/>
<stop offset="1" stop-color="white" stop-opacity="0"/>
</linearGradient>
</defs>
</svg>
