<svg width="829" height="253" viewBox="0 0 829 253" fill="none" xmlns="http://www.w3.org/2000/svg">
<g filter="url(#filter0_f_0:1)">
<path d="M124.6 183.525C118.969 192.705 109.085 197.294 94.9504 197.294C89.4315 197.294 84.3068 196.619 79.5764 195.267C74.9022 193.916 70.7067 191.916 66.9899 189.27C63.3294 186.623 60.4574 183.103 58.3737 178.71C56.2901 174.318 55.2482 169.306 55.2482 163.674V90.2676C55.2482 85.875 55.8959 81.9329 57.1911 78.4414C58.4863 74.8936 60.1758 71.937 62.2595 69.5718C64.3994 67.2065 67.0744 65.1792 70.2844 63.4897C73.4943 61.744 76.7043 60.3924 79.9142 59.4351C83.1242 58.4777 86.8128 57.7174 90.9802 57.1543C95.2038 56.5911 98.9769 56.2251 102.299 56.0562C105.678 55.8872 109.48 55.8027 113.703 55.8027C117.307 55.8027 120.743 55.9154 124.009 56.1406C127.275 56.3096 130.936 56.7038 134.99 57.3232C139.045 57.8864 142.734 58.6748 146.056 59.6885C149.379 60.6458 152.702 62.0256 156.024 63.8276C159.347 65.5734 162.134 67.6289 164.387 69.9941C166.64 72.3031 168.47 75.2033 169.878 78.6948C171.286 82.1864 171.989 86.0721 171.989 90.3521V111.301H120.883V79.2861H106.27V174.149H120.883V148.554H113.703V129.041H171.989V194H130.851L124.6 183.525ZM276.556 59.2661V80.2998H247.751V112.822H274.614V133.94H247.751V172.797H276.556V194H196.73V59.2661H276.556ZM371.747 194L337.536 133.94V194H299.692V59.2661H343.364L379.772 123.55V59.2661H417.278V194H371.747ZM494.222 59.2661V194H443.201V59.2661H494.222ZM570.575 174.233H585.189V59.3506H636.295V162.745C636.295 167.138 635.619 171.108 634.268 174.656C632.972 178.147 631.283 181.076 629.199 183.441C627.116 185.806 624.441 187.862 621.174 189.607C617.964 191.353 614.755 192.705 611.545 193.662C608.335 194.619 604.618 195.38 600.394 195.943C596.227 196.506 592.454 196.872 589.075 197.041C585.696 197.21 581.923 197.294 577.755 197.294C573.87 197.294 570.322 197.21 567.112 197.041C563.902 196.928 560.213 196.59 556.046 196.027C551.879 195.464 548.162 194.704 544.896 193.747C541.686 192.789 538.419 191.438 535.097 189.692C531.831 187.946 529.099 185.891 526.903 183.525C524.763 181.16 522.989 178.204 521.581 174.656C520.23 171.052 519.554 167.053 519.554 162.661V59.2661H570.575V174.233ZM707.242 98.9683L707.495 99.1372C707.495 99.4751 707.552 99.813 707.664 100.151C707.833 100.489 708.059 100.799 708.34 101.08C708.678 101.305 708.988 101.531 709.269 101.756C709.607 101.925 710.03 102.122 710.536 102.347C711.1 102.516 711.55 102.657 711.888 102.77C712.282 102.882 712.789 103.023 713.409 103.192C714.084 103.305 714.591 103.389 714.929 103.445C715.267 103.502 715.774 103.586 716.45 103.699C717.125 103.811 717.576 103.896 717.801 103.952C730.472 106.205 739.567 108.288 745.086 110.203C757.531 114.483 765.782 121.241 769.836 130.477C772.089 135.489 773.215 141.402 773.215 148.216C773.215 157.958 772.145 165.983 770.005 172.291C767.922 178.598 764.458 183.61 759.615 187.327C754.828 191.043 748.971 193.634 742.045 195.098C735.174 196.562 726.474 197.294 715.943 197.294C712.113 197.294 708.678 197.21 705.637 197.041C702.596 196.928 699.104 196.619 695.162 196.112C691.277 195.605 687.841 194.901 684.857 194C681.872 193.099 678.803 191.832 675.649 190.199C672.552 188.566 669.933 186.651 667.793 184.455C665.71 182.202 663.908 179.414 662.387 176.092C660.867 172.769 659.909 169.024 659.515 164.857C659.177 161.028 659.008 157.001 659.008 152.777H707.411V174.149H722.025V153.031C722.025 151.961 721.743 151.032 721.18 150.243C720.617 149.398 719.716 148.666 718.477 148.047C717.238 147.371 716.252 146.892 715.52 146.611C714.788 146.329 713.634 145.935 712.057 145.428C710.199 144.809 707.777 144.077 704.792 143.232C701.808 142.331 699.273 141.571 697.19 140.951C695.162 140.332 692.741 139.543 689.925 138.586C687.166 137.629 684.8 136.728 682.829 135.883C680.858 134.982 678.69 133.884 676.325 132.588C674.016 131.237 672.045 129.857 670.412 128.449C668.835 126.985 667.23 125.296 665.597 123.381C663.964 121.41 662.669 119.326 661.711 117.13C660.754 114.877 659.965 112.315 659.346 109.443C658.783 106.571 658.501 103.473 658.501 100.151C658.501 94.9699 658.98 90.2676 659.937 86.0439C660.895 81.8203 662.218 78.188 663.908 75.147C665.597 72.106 667.737 69.4591 670.327 67.2065C672.974 64.8976 675.762 63.0392 678.69 61.6313C681.675 60.2235 685.082 59.0972 688.911 58.2524C692.797 57.3514 696.655 56.7319 700.484 56.394C704.37 56.0562 708.678 55.8872 713.409 55.8872C718.364 55.8872 722.757 56.028 726.586 56.3096C730.472 56.5348 734.33 57.0135 738.159 57.7456C742.045 58.4214 745.395 59.3787 748.211 60.6177C751.027 61.8003 753.674 63.349 756.152 65.2637C758.63 67.1784 760.629 69.4873 762.149 72.1904C763.67 74.8372 764.881 78.019 765.782 81.7358C766.683 85.4526 767.133 89.6481 767.133 94.3223H721.856V79.2861H707.242V98.9683Z" fill="#02CBEF" fill-opacity="0.58"/>
</g>
<path d="M124.6 183.525C118.969 192.705 109.085 197.294 94.9504 197.294C89.4315 197.294 84.3068 196.619 79.5764 195.267C74.9022 193.916 70.7067 191.916 66.9899 189.27C63.3294 186.623 60.4574 183.103 58.3737 178.71C56.2901 174.318 55.2482 169.306 55.2482 163.674V90.2676C55.2482 85.875 55.8959 81.9329 57.1911 78.4414C58.4863 74.8936 60.1758 71.937 62.2595 69.5718C64.3994 67.2065 67.0744 65.1792 70.2844 63.4897C73.4943 61.744 76.7043 60.3924 79.9142 59.4351C83.1242 58.4777 86.8128 57.7174 90.9802 57.1543C95.2038 56.5911 98.9769 56.2251 102.299 56.0562C105.678 55.8872 109.48 55.8027 113.703 55.8027C117.307 55.8027 120.743 55.9154 124.009 56.1406C127.275 56.3096 130.936 56.7038 134.99 57.3232C139.045 57.8864 142.734 58.6748 146.056 59.6885C149.379 60.6458 152.702 62.0256 156.024 63.8276C159.347 65.5734 162.134 67.6289 164.387 69.9941C166.64 72.3031 168.47 75.2033 169.878 78.6948C171.286 82.1864 171.989 86.0721 171.989 90.3521V111.301H120.883V79.2861H106.27V174.149H120.883V148.554H113.703V129.041H171.989V194H130.851L124.6 183.525ZM276.556 59.2661V80.2998H247.751V112.822H274.614V133.94H247.751V172.797H276.556V194H196.73V59.2661H276.556ZM371.747 194L337.536 133.94V194H299.692V59.2661H343.364L379.772 123.55V59.2661H417.278V194H371.747ZM494.222 59.2661V194H443.201V59.2661H494.222ZM570.575 174.233H585.189V59.3506H636.295V162.745C636.295 167.138 635.619 171.108 634.268 174.656C632.972 178.147 631.283 181.076 629.199 183.441C627.116 185.806 624.441 187.862 621.174 189.607C617.964 191.353 614.755 192.705 611.545 193.662C608.335 194.619 604.618 195.38 600.394 195.943C596.227 196.506 592.454 196.872 589.075 197.041C585.696 197.21 581.923 197.294 577.755 197.294C573.87 197.294 570.322 197.21 567.112 197.041C563.902 196.928 560.213 196.59 556.046 196.027C551.879 195.464 548.162 194.704 544.896 193.747C541.686 192.789 538.419 191.438 535.097 189.692C531.831 187.946 529.099 185.891 526.903 183.525C524.763 181.16 522.989 178.204 521.581 174.656C520.23 171.052 519.554 167.053 519.554 162.661V59.2661H570.575V174.233ZM707.242 98.9683L707.495 99.1372C707.495 99.4751 707.552 99.813 707.664 100.151C707.833 100.489 708.059 100.799 708.34 101.08C708.678 101.305 708.988 101.531 709.269 101.756C709.607 101.925 710.03 102.122 710.536 102.347C711.1 102.516 711.55 102.657 711.888 102.77C712.282 102.882 712.789 103.023 713.409 103.192C714.084 103.305 714.591 103.389 714.929 103.445C715.267 103.502 715.774 103.586 716.45 103.699C717.125 103.811 717.576 103.896 717.801 103.952C730.472 106.205 739.567 108.288 745.086 110.203C757.531 114.483 765.782 121.241 769.836 130.477C772.089 135.489 773.215 141.402 773.215 148.216C773.215 157.958 772.145 165.983 770.005 172.291C767.922 178.598 764.458 183.61 759.615 187.327C754.828 191.043 748.971 193.634 742.045 195.098C735.174 196.562 726.474 197.294 715.943 197.294C712.113 197.294 708.678 197.21 705.637 197.041C702.596 196.928 699.104 196.619 695.162 196.112C691.277 195.605 687.841 194.901 684.857 194C681.872 193.099 678.803 191.832 675.649 190.199C672.552 188.566 669.933 186.651 667.793 184.455C665.71 182.202 663.908 179.414 662.387 176.092C660.867 172.769 659.909 169.024 659.515 164.857C659.177 161.028 659.008 157.001 659.008 152.777H707.411V174.149H722.025V153.031C722.025 151.961 721.743 151.032 721.18 150.243C720.617 149.398 719.716 148.666 718.477 148.047C717.238 147.371 716.252 146.892 715.52 146.611C714.788 146.329 713.634 145.935 712.057 145.428C710.199 144.809 707.777 144.077 704.792 143.232C701.808 142.331 699.273 141.571 697.19 140.951C695.162 140.332 692.741 139.543 689.925 138.586C687.166 137.629 684.8 136.728 682.829 135.883C680.858 134.982 678.69 133.884 676.325 132.588C674.016 131.237 672.045 129.857 670.412 128.449C668.835 126.985 667.23 125.296 665.597 123.381C663.964 121.41 662.669 119.326 661.711 117.13C660.754 114.877 659.965 112.315 659.346 109.443C658.783 106.571 658.501 103.473 658.501 100.151C658.501 94.9699 658.98 90.2676 659.937 86.0439C660.895 81.8203 662.218 78.188 663.908 75.147C665.597 72.106 667.737 69.4591 670.327 67.2065C672.974 64.8976 675.762 63.0392 678.69 61.6313C681.675 60.2235 685.082 59.0972 688.911 58.2524C692.797 57.3514 696.655 56.7319 700.484 56.394C704.37 56.0562 708.678 55.8872 713.409 55.8872C718.364 55.8872 722.757 56.028 726.586 56.3096C730.472 56.5348 734.33 57.0135 738.159 57.7456C742.045 58.4214 745.395 59.3787 748.211 60.6177C751.027 61.8003 753.674 63.349 756.152 65.2637C758.63 67.1784 760.629 69.4873 762.149 72.1904C763.67 74.8372 764.881 78.019 765.782 81.7358C766.683 85.4526 767.133 89.6481 767.133 94.3223H721.856V79.2861H707.242V98.9683Z" fill="white"/>
<defs>
<filter id="filter0_f_0:1" x="0.248291" y="0.802734" width="827.967" height="251.492" filterUnits="userSpaceOnUse" color-interpolation-filters="sRGB">
<feFlood flood-opacity="0" result="BackgroundImageFix"/>
<feBlend mode="normal" in="SourceGraphic" in2="BackgroundImageFix" result="shape"/>
<feGaussianBlur stdDeviation="27.5" result="effect1_foregroundBlur_0:1"/>
</filter>
</defs>
</svg>
